<?xml version="1.0" encoding="UTF-8" standalone="no"?>
<svg version="1.1" viewBox="0 0 100 100" xmlns="http://www.w3.org/2000/svg"><path d="M 99.921,25.087 C 99.905,25.034 99.883,24.986 99.863,24.935 99.819,24.822 99.768,24.713 99.705,24.609 99.674,24.559 99.641,24.51 99.604,24.463 99.53,24.366 99.448,24.279 99.356,24.197 99.315,24.16 99.278,24.122 99.235,24.089 99.215,24.074 99.2,24.053 99.178,24.039 99.047,23.948 98.907,23.876 98.76,23.822 l -26.044,-9.97 v -1.657 c 0,-0.406 -0.045,-0.8 -0.133,-1.183 C 72.408,10.248 72.064,9.531 71.575,8.861 71.33,8.526 71.05,8.204 70.735,7.893 70.51,7.671 70.268,7.457 70.01,7.247 69.911,7.166 69.803,7.092 69.7,7.015 69.534,6.889 69.371,6.764 69.195,6.644 69.053,6.547 68.904,6.455 68.756,6.362 68.608,6.267 68.459,6.174 68.303,6.082 68.125,5.978 67.941,5.878 67.754,5.779 67.618,5.707 67.483,5.634 67.344,5.564 67.13,5.456 66.909,5.353 66.687,5.25 66.571,5.195 66.451,5.141 66.33,5.088 66.078,4.978 65.822,4.87 65.56,4.766 65.463,4.728 65.366,4.691 65.269,4.653 64.977,4.543 64.683,4.434 64.381,4.33 64.313,4.307 64.244,4.286 64.176,4.262 63.841,4.151 63.504,4.042 63.155,3.938 61.019,3.302 58.66,2.836 56.217,2.547 55.234,2.432 54.238,2.342 53.238,2.284 c -0.003,0 -0.003,0 -0.004,0 C 52.235,2.225 51.231,2.195 50.233,2.195 H 50.232 50.23 c -9.536,0 -19.599,2.684 -21.965,7.706 -0.338,0.717 -0.518,1.482 -0.518,2.294 V 13.37 L 1.242,23.359 c -0.146,0.054 -0.286,0.125 -0.417,0.215 -0.02,0.013 -0.033,0.031 -0.053,0.046 -0.046,0.034 -0.084,0.075 -0.126,0.113 -0.089,0.08 -0.17,0.164 -0.243,0.257 -0.038,0.05 -0.074,0.1 -0.106,0.154 -0.062,0.1 -0.112,0.205 -0.155,0.314 C 0.121,24.513 0.098,24.564 0.08,24.621 0.034,24.783 0.005,24.948 0.002,25.12 0.002,25.127 0,25.133 0,25.14 c 0,10e-4 0,10e-4 0,0.003 0,10e-4 0,10e-4 0,0.002 v 52.258 c 0,0.789 0.487,1.497 1.224,1.779 l 48.325,18.497 c 0.017,0.007 0.035,0.004 0.052,0.01 0.204,0.072 0.414,0.116 0.629,0.116 0.213,0 0.421,-0.043 0.622,-0.112 0.017,-0.006 0.033,-0.003 0.051,-0.01 L 98.767,79.648 C 99.509,79.369 100,78.658 100,77.865 V 25.607 c 0,-0.179 -0.032,-0.352 -0.079,-0.52 z M 31.642,11.711 c 0.05,-0.147 0.126,-0.298 0.219,-0.449 0.032,-0.053 0.077,-0.105 0.115,-0.158 0.069,-0.1 0.142,-0.2 0.229,-0.301 0.057,-0.065 0.126,-0.131 0.19,-0.197 0.087,-0.088 0.176,-0.176 0.276,-0.264 0.085,-0.073 0.177,-0.147 0.27,-0.221 0.099,-0.079 0.2,-0.156 0.309,-0.235 0.113,-0.082 0.234,-0.163 0.358,-0.244 0.102,-0.067 0.212,-0.134 0.322,-0.2 0.146,-0.089 0.299,-0.179 0.461,-0.267 0.099,-0.054 0.203,-0.106 0.306,-0.161 0.19,-0.098 0.382,-0.195 0.59,-0.292 0.072,-0.034 0.149,-0.067 0.225,-0.1 2.062,-0.929 4.876,-1.728 8.298,-2.19 0.012,-0.002 0.023,-0.004 0.034,-0.005 0.491,-0.065 0.992,-0.125 1.508,-0.174 0.021,-0.003 0.04,-0.004 0.06,-0.007 0.516,-0.051 1.045,-0.094 1.586,-0.128 0.003,0 0.003,0 0.005,0 1.038,-0.067 2.109,-0.109 3.229,-0.109 1.177,0 2.309,0.04 3.395,0.113 1.817,0.122 3.493,0.341 5.026,0.627 0.106,0.02 0.213,0.04 0.318,0.061 1.213,0.236 2.329,0.518 3.343,0.829 0.103,0.032 0.205,0.064 0.307,0.096 0.491,0.158 0.964,0.321 1.402,0.491 0.007,0.002 0.012,0.005 0.019,0.008 0.424,0.166 0.815,0.339 1.188,0.514 0.09,0.043 0.181,0.086 0.271,0.13 0.362,0.179 0.707,0.36 1.015,0.543 0.009,0.007 0.018,0.012 0.027,0.019 0.297,0.179 0.56,0.36 0.802,0.542 0.065,0.048 0.127,0.096 0.188,0.145 0.234,0.188 0.45,0.375 0.627,0.562 0.489,0.521 0.745,1.035 0.745,1.507 0,2.522 -7.273,6.187 -18.672,6.187 -0.843,0 -1.654,-0.026 -2.45,-0.064 -0.239,-0.01 -0.47,-0.027 -0.704,-0.042 -0.569,-0.036 -1.129,-0.08 -1.673,-0.133 -0.225,-0.022 -0.449,-0.043 -0.67,-0.068 -0.638,-0.072 -1.259,-0.156 -1.859,-0.251 -0.08,-0.013 -0.165,-0.022 -0.244,-0.036 -0.704,-0.115 -1.374,-0.247 -2.02,-0.39 -0.094,-0.02 -0.182,-0.043 -0.273,-0.064 -0.553,-0.127 -1.082,-0.264 -1.586,-0.407 -0.1,-0.029 -0.2,-0.058 -0.297,-0.086 -2.702,-0.8 -4.688,-1.815 -5.814,-2.826 -0.044,-0.04 -0.086,-0.078 -0.125,-0.117 -0.102,-0.096 -0.201,-0.191 -0.286,-0.287 -0.113,-0.126 -0.217,-0.254 -0.301,-0.378 -0.038,-0.055 -0.064,-0.11 -0.096,-0.164 -0.059,-0.103 -0.11,-0.204 -0.15,-0.305 -0.02,-0.047 -0.038,-0.095 -0.052,-0.142 -0.042,-0.144 -0.074,-0.287 -0.074,-0.425 -0.001,-0.161 0.028,-0.322 0.083,-0.487 z m 37.263,6.213 v 6.526 c 0,2.521 -7.271,6.185 -18.669,6.185 v -8.442 c 7.049,0 14.366,-1.474 18.669,-4.269 z m -41.158,-0.48 v 0.002 7.004 c 0,6.494 11.584,9.999 22.483,9.999 10.902,0 22.487,-3.505 22.487,-9.999 v -6.519 l 20.009,7.66 -23.27,8.77 -19.22,7.244 L 32.913,34.973 7.274,25.159 Z M 96.189,76.546 52.136,93.145 V 44.962 L 67.822,39.051 96.189,28.362 Z" fill="black"/></svg>