<?xml version="1.0" encoding="UTF-8" standalone="no"?>
<svg version="1.1" viewBox="0 0 100 100" xmlns="http://www.w3.org/2000/svg"><path d="M 50.235 44.726 C 55.791 44.726 61.697 42.94 61.697 39.63 L 61.697 33.383 C 61.697 33.176 61.674 32.976 61.629 32.78 C 61.539 32.391 61.365 32.025 61.115 31.684 C 60.99 31.513 60.847 31.35 60.687 31.191 C 60.572 31.078 60.449 30.969 60.318 30.861 C 60.267 30.82 60.211 30.782 60.16 30.743 C 60.076 30.679 59.992 30.615 59.902 30.554 C 59.83 30.505 59.754 30.458 59.679 30.41 C 59.603 30.362 59.527 30.314 59.447 30.267 C 59.357 30.214 59.261 30.163 59.168 30.113 C 59.1 30.076 59.029 30.039 58.959 30.003 C 58.85 29.948 58.738 29.895 58.625 29.843 C 58.564 29.815 58.502 29.788 58.441 29.761 C 58.312 29.705 58.181 29.65 58.048 29.597 C 57.997 29.577 57.948 29.559 57.9 29.539 C 57.752 29.483 57.601 29.427 57.447 29.374 C 57.412 29.362 57.377 29.351 57.343 29.339 C 57.173 29.282 56.999 29.227 56.823 29.174 C 55.733 28.85 54.53 28.612 53.286 28.465 C 52.782 28.406 52.277 28.361 51.766 28.331 C 51.765 28.331 51.765 28.331 51.765 28.331 C 51.255 28.301 50.744 28.286 50.235 28.286 L 50.234 28.286 L 50.234 28.286 C 45.373 28.286 40.244 29.654 39.038 32.214 C 38.866 32.579 38.774 32.969 38.774 33.383 L 38.774 33.984 L 38.774 36.06 L 38.774 39.63 C 38.774 42.94 44.679 44.726 50.235 44.726 Z M 59.754 39.63 C 59.754 40.915 56.047 42.782 50.237 42.782 L 50.237 38.479 C 53.83 38.478 57.561 37.727 59.754 36.303 Z M 40.76 33.136 C 40.785 33.061 40.824 32.984 40.871 32.907 C 40.888 32.88 40.911 32.853 40.93 32.826 C 40.966 32.775 41.002 32.724 41.047 32.673 C 41.076 32.64 41.111 32.606 41.145 32.573 C 41.188 32.528 41.234 32.483 41.286 32.438 C 41.328 32.4 41.375 32.363 41.423 32.326 C 41.473 32.286 41.525 32.246 41.58 32.206 C 41.638 32.164 41.699 32.123 41.763 32.081 C 41.816 32.047 41.87 32.013 41.927 31.978 C 42.001 31.933 42.079 31.887 42.161 31.842 C 42.212 31.814 42.265 31.788 42.317 31.76 C 42.415 31.71 42.512 31.66 42.618 31.612 C 42.655 31.594 42.694 31.578 42.732 31.561 C 43.784 31.088 45.217 30.68 46.961 30.444 C 46.967 30.443 46.973 30.442 46.979 30.442 C 47.229 30.408 47.485 30.379 47.748 30.353 C 47.759 30.352 47.769 30.351 47.778 30.35 C 48.042 30.324 48.311 30.302 48.587 30.284 C 48.589 30.284 48.589 30.284 48.59 30.284 C 49.118 30.25 49.665 30.229 50.236 30.229 C 50.836 30.229 51.414 30.249 51.966 30.287 C 52.891 30.349 53.747 30.461 54.528 30.607 C 54.583 30.617 54.637 30.627 54.69 30.638 C 55.309 30.759 55.878 30.902 56.395 31.06 C 56.446 31.076 56.499 31.093 56.551 31.109 C 56.801 31.189 57.041 31.272 57.266 31.359 C 57.268 31.36 57.272 31.361 57.276 31.363 C 57.491 31.447 57.69 31.535 57.88 31.625 C 57.927 31.647 57.974 31.669 58.019 31.691 C 58.205 31.782 58.38 31.875 58.537 31.968 C 58.541 31.971 58.545 31.974 58.551 31.977 C 58.703 32.068 58.836 32.161 58.959 32.253 C 58.992 32.278 59.025 32.302 59.057 32.327 C 59.176 32.423 59.286 32.518 59.375 32.614 C 59.625 32.88 59.756 33.141 59.756 33.382 C 59.756 34.668 56.047 36.535 50.238 36.535 C 49.808 36.535 49.395 36.522 48.989 36.502 C 48.868 36.497 48.75 36.488 48.631 36.481 C 48.341 36.463 48.056 36.44 47.778 36.414 C 47.663 36.402 47.549 36.392 47.436 36.379 C 47.111 36.342 46.793 36.299 46.489 36.252 C 46.448 36.245 46.404 36.24 46.364 36.234 C 46.005 36.175 45.664 36.108 45.335 36.035 C 45.288 36.025 45.243 36.013 45.196 36.002 C 44.914 35.937 44.643 35.868 44.387 35.794 C 44.336 35.779 44.284 35.765 44.235 35.75 C 42.858 35.342 41.846 34.825 41.272 34.31 C 41.25 34.29 41.228 34.27 41.208 34.25 C 41.157 34.201 41.106 34.152 41.062 34.104 C 41.004 34.04 40.952 33.975 40.909 33.911 C 40.889 33.883 40.876 33.855 40.86 33.828 C 40.831 33.776 40.804 33.724 40.784 33.673 C 40.774 33.649 40.764 33.625 40.757 33.601 C 40.736 33.527 40.719 33.454 40.719 33.384 C 40.717 33.303 40.732 33.22 40.76 33.136 Z" fill="black"/><path d="M 99.961 30.763 C 99.953 30.736 99.941 30.71 99.93 30.684 C 99.909 30.627 99.883 30.572 99.852 30.521 C 99.834 30.493 99.817 30.468 99.797 30.442 C 99.762 30.395 99.719 30.352 99.674 30.311 C 99.653 30.29 99.633 30.27 99.61 30.252 C 99.6 30.245 99.592 30.235 99.583 30.228 C 99.521 30.184 99.452 30.15 99.382 30.123 C 99.38 30.123 99.38 30.121 99.378 30.121 L 99.376 30.12 C 99.374 30.12 99.374 30.12 99.372 30.119 L 86.095 25.036 L 86.095 24.19 C 86.095 23.983 86.072 23.782 86.029 23.587 C 85.939 23.197 85.763 22.832 85.513 22.49 C 85.39 22.32 85.245 22.156 85.085 21.997 C 84.972 21.884 84.847 21.775 84.716 21.667 C 84.667 21.626 84.611 21.588 84.558 21.549 C 84.474 21.485 84.39 21.421 84.3 21.36 C 84.228 21.311 84.152 21.264 84.077 21.216 C 84.001 21.168 83.927 21.12 83.845 21.073 C 83.755 21.02 83.661 20.969 83.566 20.918 C 83.498 20.881 83.429 20.844 83.357 20.808 C 83.25 20.753 83.136 20.7 83.023 20.648 C 82.962 20.62 82.9 20.592 82.839 20.565 C 82.71 20.509 82.581 20.454 82.446 20.401 C 82.397 20.381 82.346 20.363 82.298 20.343 C 82.15 20.287 81.999 20.231 81.845 20.178 C 81.812 20.166 81.777 20.155 81.741 20.143 C 81.571 20.086 81.397 20.03 81.221 19.977 C 80.131 19.653 78.93 19.415 77.684 19.268 C 77.182 19.209 76.674 19.164 76.164 19.134 L 76.164 19.134 C 75.652 19.104 75.143 19.089 74.633 19.089 L 74.633 19.089 L 74.631 19.089 C 73.477 19.089 72.305 19.169 71.176 19.321 L 61.463 15.603 L 61.463 14.761 C 61.463 14.554 61.44 14.353 61.395 14.158 C 61.305 13.768 61.131 13.403 60.881 13.062 C 60.756 12.891 60.613 12.728 60.453 12.569 C 60.34 12.456 60.215 12.347 60.084 12.239 C 60.033 12.198 59.977 12.16 59.926 12.121 C 59.842 12.057 59.758 11.993 59.668 11.932 C 59.596 11.883 59.52 11.836 59.445 11.788 C 59.369 11.74 59.293 11.692 59.213 11.645 C 59.123 11.592 59.029 11.541 58.934 11.491 C 58.866 11.454 58.795 11.417 58.725 11.381 C 58.616 11.326 58.504 11.273 58.391 11.221 C 58.33 11.193 58.268 11.165 58.207 11.139 C 58.078 11.083 57.947 11.028 57.814 10.975 C 57.765 10.955 57.714 10.937 57.666 10.917 C 57.518 10.861 57.367 10.805 57.213 10.752 C 57.178 10.74 57.145 10.729 57.109 10.717 C 56.939 10.66 56.765 10.605 56.589 10.552 C 55.499 10.228 54.296 9.99 53.052 9.843 C 52.548 9.784 52.043 9.739 51.532 9.709 C 51.531 9.709 51.531 9.709 51.531 9.709 C 51.022 9.679 50.51 9.664 50.001 9.664 L 50 9.664 L 50 9.664 C 45.139 9.664 40.01 11.032 38.804 13.592 C 38.632 13.957 38.539 14.347 38.539 14.761 L 38.539 15.362 L 38.539 15.362 L 28.752 19.05 C 28.81 19.057 28.866 19.067 28.923 19.075 C 28.833 19.063 28.744 19.048 28.653 19.037 C 28.151 18.978 27.644 18.933 27.133 18.903 C 27.132 18.903 27.132 18.903 27.132 18.903 C 26.622 18.873 26.111 18.858 25.602 18.858 L 25.602 18.858 L 25.601 18.858 C 20.741 18.858 15.611 20.226 14.405 22.785 C 14.233 23.151 14.141 23.541 14.141 23.954 L 14.141 24.555 L 0.63 29.645 C 0.556 29.672 0.485 29.709 0.419 29.754 C 0.409 29.761 0.402 29.77 0.393 29.777 C 0.369 29.795 0.35 29.815 0.328 29.836 C 0.283 29.876 0.241 29.919 0.205 29.966 C 0.185 29.991 0.167 30.017 0.15 30.044 C 0.118 30.096 0.093 30.149 0.071 30.206 C 0.06 30.232 0.048 30.259 0.04 30.287 C 0.016 30.369 0.001 30.454 0 30.542 C 0 30.546 -0.001 30.549 -0.001 30.552 C -0.001 30.553 -0.001 30.553 -0.001 30.553 C -0.001 30.553 -0.001 30.553 -0.001 30.554 L -0.001 70.507 C -0.001 70.909 0.248 71.271 0.623 71.414 L 49.886 90.271 C 49.894 90.275 49.904 90.273 49.913 90.277 C 50.017 90.312 50.124 90.336 50.233 90.336 C 50.34 90.336 50.446 90.315 50.549 90.279 C 50.557 90.275 50.567 90.277 50.574 90.273 L 99.368 71.887 C 99.75 71.747 100 71.385 100 70.981 L 100 31.027 C 100 30.936 99.984 30.848 99.961 30.763 Z M 71.377 21.25 C 71.627 21.217 71.883 21.187 72.145 21.161 C 72.157 21.16 72.166 21.159 72.176 21.158 C 72.44 21.132 72.709 21.11 72.985 21.093 C 72.985 21.093 72.985 21.093 72.987 21.093 C 73.516 21.059 74.063 21.037 74.633 21.037 C 75.233 21.037 75.811 21.057 76.363 21.095 C 77.289 21.157 78.142 21.269 78.925 21.415 C 78.98 21.425 79.032 21.435 79.085 21.446 C 79.704 21.567 80.273 21.71 80.79 21.868 C 80.843 21.884 80.894 21.901 80.946 21.917 C 81.196 21.998 81.438 22.081 81.661 22.167 C 81.665 22.168 81.667 22.169 81.671 22.171 C 81.886 22.255 82.085 22.344 82.276 22.433 C 82.323 22.455 82.368 22.477 82.413 22.499 C 82.599 22.59 82.774 22.682 82.933 22.776 C 82.937 22.779 82.941 22.782 82.945 22.785 C 83.097 22.876 83.23 22.969 83.355 23.061 C 83.388 23.086 83.419 23.11 83.451 23.135 C 83.57 23.231 83.681 23.326 83.771 23.422 C 84.019 23.688 84.15 23.949 84.15 24.191 C 84.15 25.477 80.443 27.344 74.632 27.344 C 74.202 27.344 73.788 27.331 73.384 27.311 C 73.261 27.306 73.144 27.297 73.025 27.29 C 72.734 27.272 72.449 27.249 72.171 27.223 C 72.058 27.212 71.942 27.201 71.831 27.188 C 71.505 27.151 71.188 27.108 70.882 27.06 C 70.843 27.053 70.798 27.049 70.759 27.042 C 70.4 26.983 70.058 26.916 69.73 26.843 C 69.683 26.833 69.636 26.821 69.589 26.81 C 69.308 26.745 69.038 26.675 68.78 26.602 C 68.729 26.587 68.678 26.572 68.63 26.558 C 67.253 26.15 66.239 25.633 65.665 25.118 C 65.644 25.098 65.622 25.078 65.603 25.058 C 65.55 25.009 65.499 24.96 65.457 24.912 C 65.4 24.848 65.348 24.783 65.305 24.719 C 65.285 24.691 65.272 24.663 65.256 24.636 C 65.227 24.584 65.199 24.532 65.18 24.481 C 65.168 24.457 65.16 24.433 65.153 24.409 C 65.132 24.335 65.116 24.263 65.116 24.192 C 65.116 24.111 65.132 24.029 65.159 23.945 C 65.184 23.87 65.223 23.793 65.27 23.716 C 65.286 23.689 65.309 23.662 65.329 23.635 C 65.364 23.584 65.401 23.533 65.446 23.482 C 65.475 23.448 65.51 23.415 65.544 23.381 C 65.587 23.336 65.634 23.291 65.685 23.246 C 65.728 23.209 65.775 23.171 65.822 23.134 C 65.873 23.094 65.924 23.054 65.978 23.014 C 66.037 22.972 66.097 22.931 66.162 22.889 C 66.213 22.855 66.269 22.821 66.326 22.786 C 66.4 22.741 66.478 22.695 66.56 22.65 C 66.611 22.623 66.664 22.596 66.716 22.568 C 66.812 22.518 66.909 22.468 67.017 22.419 C 67.054 22.402 67.093 22.385 67.132 22.368 C 68.183 21.895 69.616 21.487 71.361 21.252 C 71.365 21.251 71.371 21.25 71.377 21.25 Z M 84.15 27.11 L 84.15 30.437 C 84.15 31.722 80.443 33.59 74.634 33.59 L 74.634 29.287 C 78.227 29.285 81.957 28.534 84.15 27.11 Z M 40.526 14.514 C 40.551 14.439 40.59 14.362 40.637 14.285 C 40.654 14.258 40.677 14.231 40.696 14.204 C 40.732 14.153 40.768 14.102 40.813 14.051 C 40.842 14.018 40.877 13.984 40.91 13.951 C 40.954 13.906 41 13.861 41.051 13.816 C 41.094 13.778 41.141 13.741 41.188 13.704 C 41.239 13.664 41.29 13.624 41.345 13.584 C 41.403 13.542 41.464 13.501 41.528 13.459 C 41.581 13.425 41.635 13.391 41.692 13.357 C 41.767 13.312 41.844 13.266 41.926 13.221 C 41.977 13.194 42.03 13.167 42.082 13.139 C 42.18 13.089 42.277 13.039 42.383 12.991 C 42.42 12.973 42.459 12.957 42.498 12.94 C 43.549 12.467 44.982 12.059 46.727 11.823 C 46.733 11.822 46.739 11.821 46.745 11.821 C 46.995 11.787 47.251 11.758 47.514 11.732 C 47.525 11.731 47.535 11.73 47.544 11.729 C 47.808 11.703 48.077 11.681 48.353 11.663 C 48.355 11.663 48.355 11.663 48.356 11.663 C 48.883 11.629 49.43 11.608 50 11.608 C 50.6 11.608 51.178 11.628 51.73 11.665 C 52.655 11.727 53.511 11.839 54.292 11.985 C 54.347 11.995 54.401 12.005 54.454 12.016 C 55.073 12.136 55.642 12.28 56.159 12.438 C 56.21 12.454 56.263 12.471 56.315 12.487 C 56.565 12.567 56.805 12.65 57.03 12.737 C 57.032 12.738 57.036 12.74 57.04 12.741 C 57.255 12.825 57.454 12.913 57.645 13.003 C 57.692 13.025 57.737 13.047 57.782 13.069 C 57.968 13.16 58.143 13.253 58.3 13.346 C 58.304 13.349 58.308 13.352 58.314 13.355 C 58.466 13.446 58.599 13.539 58.722 13.631 C 58.755 13.656 58.788 13.68 58.82 13.705 C 58.939 13.801 59.05 13.896 59.138 13.992 C 59.388 14.258 59.519 14.519 59.519 14.76 C 59.519 16.046 55.812 17.913 50.001 17.913 C 49.571 17.913 49.158 17.9 48.752 17.88 C 48.631 17.875 48.513 17.866 48.394 17.859 C 48.104 17.841 47.819 17.818 47.541 17.792 C 47.426 17.78 47.312 17.77 47.199 17.757 C 46.874 17.72 46.557 17.677 46.252 17.629 C 46.211 17.623 46.168 17.618 46.127 17.611 C 45.768 17.552 45.427 17.485 45.098 17.412 C 45.051 17.402 45.006 17.39 44.959 17.379 C 44.677 17.314 44.406 17.245 44.15 17.171 C 44.099 17.156 44.048 17.142 43.998 17.127 C 42.621 16.719 41.609 16.202 41.035 15.687 C 41.013 15.667 40.992 15.647 40.972 15.627 C 40.921 15.578 40.869 15.529 40.826 15.481 C 40.768 15.417 40.716 15.352 40.673 15.288 C 40.654 15.26 40.64 15.232 40.624 15.205 C 40.595 15.153 40.568 15.101 40.548 15.05 C 40.538 15.026 40.528 15.002 40.521 14.978 C 40.5 14.904 40.483 14.831 40.483 14.761 C 40.483 14.681 40.498 14.598 40.526 14.514 Z M 59.52 17.681 L 59.52 21.008 C 59.52 22.293 55.813 24.16 50.003 24.16 L 50.003 19.857 C 53.596 19.856 57.326 19.105 59.52 17.681 Z M 29.819 19.206 C 29.766 19.197 29.715 19.186 29.663 19.178 C 29.716 19.187 29.767 19.198 29.819 19.206 Z M 30.611 19.354 C 30.604 19.352 30.597 19.35 30.59 19.349 C 30.597 19.35 30.604 19.352 30.611 19.354 Z M 16.129 23.707 C 16.154 23.632 16.193 23.555 16.24 23.478 C 16.257 23.452 16.28 23.425 16.299 23.398 C 16.335 23.347 16.371 23.296 16.416 23.245 C 16.445 23.212 16.48 23.178 16.513 23.144 C 16.557 23.1 16.602 23.055 16.654 23.01 C 16.696 22.972 16.743 22.935 16.791 22.898 C 16.841 22.857 16.893 22.818 16.948 22.778 C 17.006 22.736 17.067 22.695 17.131 22.653 C 17.183 22.619 17.239 22.585 17.295 22.551 C 17.37 22.505 17.447 22.46 17.53 22.415 C 17.58 22.388 17.634 22.361 17.686 22.333 C 17.783 22.283 17.881 22.233 17.987 22.185 C 18.024 22.167 18.063 22.151 18.101 22.134 C 19.153 21.66 20.586 21.253 22.33 21.017 C 22.336 21.016 22.342 21.015 22.348 21.015 C 22.598 20.981 22.854 20.951 23.117 20.926 C 23.128 20.925 23.138 20.924 23.148 20.923 C 23.412 20.897 23.681 20.875 23.956 20.858 C 23.957 20.858 23.957 20.858 23.959 20.858 C 24.488 20.824 25.034 20.802 25.605 20.802 C 26.205 20.802 26.782 20.822 27.335 20.86 C 28.261 20.922 29.116 21.034 29.897 21.18 C 29.952 21.19 30.005 21.201 30.059 21.211 C 30.678 21.331 31.247 21.475 31.763 21.633 C 31.815 21.649 31.867 21.666 31.92 21.682 C 32.17 21.762 32.411 21.845 32.635 21.932 C 32.638 21.933 32.64 21.935 32.644 21.936 C 32.86 22.02 33.059 22.109 33.249 22.198 C 33.295 22.22 33.341 22.242 33.387 22.264 C 33.572 22.355 33.748 22.448 33.905 22.541 C 33.909 22.544 33.913 22.547 33.918 22.55 C 34.069 22.641 34.203 22.733 34.327 22.826 C 34.36 22.851 34.392 22.875 34.423 22.9 C 34.542 22.996 34.653 23.091 34.743 23.186 C 34.992 23.452 35.123 23.714 35.123 23.955 C 35.123 25.241 31.415 27.108 25.605 27.108 C 25.175 27.108 24.762 27.095 24.356 27.075 C 24.234 27.07 24.117 27.061 23.998 27.054 C 23.707 27.036 23.422 27.013 23.145 26.986 C 23.031 26.975 22.916 26.964 22.804 26.951 C 22.479 26.914 22.162 26.871 21.856 26.823 C 21.815 26.817 21.772 26.812 21.731 26.805 C 21.372 26.746 21.031 26.68 20.702 26.606 C 20.654 26.596 20.61 26.584 20.563 26.573 C 20.281 26.508 20.011 26.439 19.754 26.365 C 19.703 26.35 19.652 26.336 19.603 26.321 C 18.226 25.913 17.213 25.396 16.639 24.881 C 16.617 24.861 16.596 24.841 16.576 24.821 C 16.524 24.772 16.473 24.723 16.43 24.674 C 16.372 24.61 16.32 24.545 16.277 24.482 C 16.257 24.454 16.244 24.426 16.228 24.398 C 16.199 24.346 16.172 24.294 16.152 24.243 C 16.142 24.219 16.132 24.195 16.125 24.171 C 16.104 24.097 16.087 24.025 16.087 23.954 C 16.086 23.874 16.101 23.791 16.129 23.707 Z M 35.123 26.874 L 35.123 30.201 C 35.123 31.486 31.416 33.353 25.606 33.353 L 25.606 29.05 C 29.199 29.05 32.928 28.299 35.123 26.874 Z M 14.143 26.63 L 14.143 26.63 L 14.143 30.201 C 14.143 33.511 20.048 35.297 25.603 35.297 C 31.16 35.297 37.065 33.51 37.065 30.201 L 37.065 23.954 C 37.065 23.747 37.042 23.546 36.998 23.351 C 36.908 22.961 36.733 22.596 36.484 22.255 C 36.359 22.084 36.216 21.92 36.056 21.761 C 35.942 21.648 35.818 21.539 35.686 21.432 C 35.637 21.391 35.58 21.353 35.528 21.313 C 35.444 21.249 35.361 21.186 35.271 21.125 C 35.199 21.075 35.123 21.028 35.047 20.981 C 34.971 20.933 34.896 20.885 34.816 20.838 C 34.726 20.785 34.631 20.734 34.536 20.683 C 34.468 20.646 34.398 20.61 34.327 20.574 C 34.219 20.519 34.106 20.466 33.993 20.414 C 33.933 20.386 33.871 20.358 33.809 20.331 C 33.681 20.275 33.551 20.22 33.417 20.167 C 33.368 20.147 33.318 20.128 33.269 20.109 C 33.12 20.053 32.97 19.997 32.816 19.944 C 32.781 19.932 32.746 19.922 32.712 19.909 C 32.582 19.866 32.448 19.824 32.314 19.782 L 38.541 17.436 L 38.541 21.006 C 38.541 24.316 44.446 26.102 50.001 26.102 C 55.557 26.102 61.463 24.315 61.463 21.006 L 61.463 17.686 L 67.717 20.08 C 65.653 20.743 64.045 21.729 63.438 23.02 C 63.264 23.385 63.172 23.775 63.172 24.189 L 63.172 24.789 L 63.172 26.865 L 63.172 30.435 C 63.172 33.745 69.076 35.531 74.631 35.531 C 80.19 35.531 86.094 33.745 86.094 30.435 L 86.094 27.114 L 96.293 31.018 L 63.371 43.425 L 50.237 48.374 L 29.051 40.264 L 3.708 30.562 Z M 98.057 70.309 L 51.206 87.962 L 51.206 50.083 L 98.057 32.431 Z" fill="black"/></svg>