<?xml version="1.0" encoding="UTF-8" standalone="no"?>
<svg version="1.1" viewBox="0 0 100 100" xmlns="http://www.w3.org/2000/svg"><path d="m 82.19,44.33 a 79.93,79.93 0 0 1 -12,0.85 c -20.25,0 -40.48,-6.36 -47.41,-8.77 -2.49,13.07 -5,15.15 -6.29,15.61 A 4,4 0 0 1 14.6,52.5 3.87,3.87 0 0 1 12.86,52.11 V 72 A 13.74,13.74 0 0 0 26.6,85.75 h 2.76 V 94 h 38.5 V 85.75 H 70.6 A 13.76,13.76 0 0 0 84.36,72 V 52.17 l -2.17,0.15 z M 61,50 A 4.13,4.13 0 1 1 56.87,54.12 4.11,4.11 0 0 1 61,50 Z m 0.45,16.5 v 0 c 0.13,0 1.11,-0.11 0.87,0.74 v 0 c 0,0 -2.96,4.76 -13.69,4.76 -10.73,0 -13.71,-4.73 -13.71,-4.73 -0.29,-1 0.91,-0.78 0.91,-0.78 0,0 4.17,2.76 12.78,2.76 8.61,0 12.83,-2.75 12.83,-2.75 z M 36.24,50 A 4.13,4.13 0 1 1 32.12,54.12 4.11,4.11 0 0 1 36.24,50 Z" fill="black"/><path d="m 48.61,6 c 0,0 -38.5,1 -38.5,24.75 0,11.85 1.36,16.67 2.75,18.51 1.39,1.84 2.76,0.74 2.76,0.74 0,0 2.73,-0.52 5.49,-16.5 0,0 35.58,13.66 63.25,8.25 V 50 c 0,0 5.5,-0.39 5.5,-8.25 0,0 2.75,-35.75 -41.25,-35.75 z" fill="black"/></svg>